<svg xmlns="http://www.w3.org/2000/svg" xmlns:xlink="http://www.w3.org/1999/xlink" aria-hidden="true" role="img" class="iconify iconify--akar-icons" width="32" height="32" preserveAspectRatio="xMidYMid meet" viewBox="0 0 24 24"><g fill="none"><path fill-rule="evenodd" clip-rule="evenodd" d="M22 8a2 2 0 1 1-4 0a2 2 0 0 1 4 0z" fill="currentColor"></path><path fill-rule="evenodd" clip-rule="evenodd" d="M22 16a2 2 0 1 1-4 0a2 2 0 0 1 4 0z" fill="currentColor"></path><path fill-rule="evenodd" clip-rule="evenodd" d="M14 16a2 2 0 1 1-4 0a2 2 0 0 1 4 0z" fill="currentColor"></path><path fill-rule="evenodd" clip-rule="evenodd" d="M6 8a2 2 0 1 1-4 0a2 2 0 0 1 4 0z" fill="currentColor"></path><path fill-rule="evenodd" clip-rule="evenodd" d="M6 16a2 2 0 1 1-4 0a2 2 0 0 1 4 0z" fill="currentColor"></path><path fill-rule="evenodd" clip-rule="evenodd" d="M14 8a2 2 0 1 1-4 0a2 2 0 0 1 4 0z" fill="currentColor"></path></g></svg>
